<svg xmlns="http://www.w3.org/2000/svg" version="1.1" xmlns:xlink="http://www.w3.org/1999/xlink" xmlns:svgjs="http://svgjs.dev/svgjs" width="1500" height="1500" viewBox="0 0 1500 1500"><rect width="1500" height="1500" fill="#ffffff"></rect><g transform="matrix(0.6666666666666666,0,0,0.6666666666666666,248.7765957446809,506.91231637362637)"><svg viewBox="0 0 376 182" data-background-color="#ffffff" preserveAspectRatio="xMidYMid meet" height="726" width="1500" xmlns="http://www.w3.org/2000/svg" xmlns:xlink="http://www.w3.org/1999/xlink"><g id="tight-bounds" transform="matrix(1,0,0,1,0.46023999999999887,0.4090049999999934)"><svg viewBox="0 0 375.07953 181.18199" height="181.18199" width="375.07953"><g><svg></svg></g><g><svg viewBox="0 0 375.07953 181.18199" height="181.18199" width="375.07953"><g transform="matrix(1,0,0,1,-10.22024,-38.84756999999999)"><path d="M10.22 208.352v-169.504h375.08v169.504l-211.968 0 0-4.195h207.773v-161.114h-366.69v161.114l16.879 0 0 4.195z" fill="#5e1914" fill-rule="nonzero" stroke="none" stroke-width="1" stroke-linecap="butt" stroke-linejoin="miter" stroke-miterlimit="10" stroke-dasharray="" stroke-dashoffset="0" font-family="none" font-weight="none" font-size="none" text-anchor="none" style="mix-blend-mode: normal" data-fill-palette-color="tertiary"></path><g><path transform="translate(43.04172,214.08758) scale(0.54018,0.54018)" d="M19.7-14.4v0c0.667 1 1.16 2.073 1.48 3.22 0.313 1.153 0.47 2.413 0.47 3.78v0c0 2.767-0.883 5.023-2.65 6.77-1.767 1.753-4.033 2.63-6.8 2.63v0c-3.333 0-5.94-1.227-7.82-3.68-1.887-2.447-2.83-5.637-2.83-9.57v0c0.533-0.267 1.117-0.5 1.75-0.7 0.633-0.2 1.25-0.317 1.85-0.35v0c-0.033 3.567 0.56 6.367 1.78 8.4 1.213 2.033 2.92 3.05 5.12 3.05v0c1.667 0 3.007-0.56 4.02-1.68 1.02-1.113 1.53-2.587 1.53-4.42v0c0-1.767-0.4-3.343-1.2-4.73-0.8-1.38-2.533-3.053-5.2-5.02v0c-1.6-1.2-2.767-2.16-3.5-2.88-0.733-0.713-1.35-1.453-1.85-2.22v0c-0.667-1-1.167-2.083-1.5-3.25-0.333-1.167-0.5-2.433-0.5-3.8v0c0-2.9 0.827-5.207 2.48-6.92 1.647-1.72 3.853-2.58 6.62-2.58v0c2.533 0 4.51 0.723 5.93 2.17 1.413 1.453 2.453 3.913 3.12 7.38v0c-0.467 0.267-0.973 0.467-1.52 0.6-0.553 0.133-1.247 0.217-2.08 0.25v0c-0.3-2.633-0.883-4.533-1.75-5.7-0.867-1.167-2.15-1.75-3.85-1.75v0c-1.567 0-2.767 0.517-3.6 1.55-0.833 1.033-1.25 2.533-1.25 4.5v0c0 1.8 0.41 3.407 1.23 4.82 0.813 1.42 2.553 3.13 5.22 5.13v0c1.6 1.2 2.76 2.15 3.48 2.85 0.713 0.7 1.32 1.417 1.82 2.15zM44.55-16.3v0c0 2.7-0.407 5.857-1.22 9.47-0.82 3.62-1.663 6.43-2.53 8.43v0c-0.567-0.067-1.123-0.183-1.67-0.35-0.553-0.167-1.08-0.383-1.58-0.65v0c1-2.7 1.777-5.533 2.33-8.5 0.547-2.967 0.82-5.75 0.82-8.35v0c0-2.6-0.26-4.427-0.78-5.48-0.513-1.047-1.42-1.57-2.72-1.57v0c-1.367 0-2.717 0.757-4.05 2.27-1.333 1.52-2.367 3.563-3.1 6.13v0 0.15c0 1.867 0.083 4.183 0.25 6.95 0.167 2.767 0.333 4.783 0.5 6.05v0c-0.367 0.1-0.883 0.19-1.55 0.27-0.667 0.087-1.3 0.13-1.9 0.13v0c-0.267-3.5-0.467-6.793-0.6-9.88-0.133-3.08-0.2-5.92-0.2-8.52v0c0-2.7 0.1-5.827 0.3-9.38 0.2-3.547 0.433-6.187 0.7-7.92v0c0.433-0.233 0.883-0.41 1.35-0.53 0.467-0.113 0.933-0.17 1.4-0.17v0c0.333 0 0.717 0.057 1.15 0.17 0.433 0.12 0.717 0.197 0.85 0.23v0c-0.533 2.533-0.983 5.273-1.35 8.22-0.367 2.953-0.617 5.897-0.75 8.83v0c1.033-1.933 2.217-3.417 3.55-4.45 1.333-1.033 2.717-1.55 4.15-1.55v0c2.333 0 4.027 0.79 5.08 2.37 1.047 1.587 1.57 4.13 1.57 7.63zM48.6-12.1v0c0-4.333 0.993-7.867 2.98-10.6 1.98-2.733 4.537-4.1 7.67-4.1v0c2.567 0 4.6 0.973 6.1 2.92 1.5 1.953 2.25 4.58 2.25 7.88v0c0 4.833-0.94 8.79-2.82 11.87-1.887 3.087-4.38 4.63-7.48 4.63v0c-2.667 0-4.783-1.16-6.35-3.48-1.567-2.313-2.35-5.353-2.35-9.12zM63.6-13.9v0c0-3.4-0.433-5.933-1.3-7.6-0.867-1.667-2.183-2.5-3.95-2.5v0c-1.6 0-2.99 1.1-4.17 3.3-1.187 2.2-1.78 4.9-1.78 8.1v0c0 2.933 0.5 5.39 1.5 7.37 1 1.987 2.35 2.98 4.05 2.98v0c1.5 0 2.817-1.143 3.95-3.43 1.133-2.28 1.7-5.02 1.7-8.22zM76.25-4.3v0c0.4 0.4 0.833 0.7 1.3 0.9 0.467 0.2 0.967 0.3 1.5 0.3v0c1.933 0 3.617-1.393 5.05-4.18 1.433-2.78 2.15-6.22 2.15-10.32v0c0-2.1-0.35-3.75-1.05-4.95-0.7-1.2-1.65-1.8-2.85-1.8v0c-1.4 0-2.633 0.65-3.7 1.95-1.067 1.3-1.917 3.217-2.55 5.75v0c-0.033 0.4-0.05 0.85-0.05 1.35 0 0.5 0 1.25 0 2.25v0c0 1.233 0.017 2.517 0.05 3.85 0.033 1.333 0.083 2.967 0.15 4.9zM76.45-0.85v0c0.133 1.933 0.31 3.817 0.53 5.65 0.213 1.833 0.487 3.733 0.82 5.7v0c-0.467 0.167-1.007 0.293-1.62 0.38-0.62 0.08-1.197 0.12-1.73 0.12v0c-0.567-4.267-1.033-9-1.4-14.2-0.367-5.2-0.55-9.933-0.55-14.2v0c0-1.967 0.033-3.733 0.1-5.3 0.067-1.567 0.183-3.117 0.35-4.65v0c0.433-0.233 0.91-0.41 1.43-0.53 0.513-0.113 1.053-0.17 1.62-0.17v0c0.167 0 0.367 0.017 0.6 0.05 0.233 0.033 0.517 0.083 0.85 0.15v0c-0.233 0.967-0.423 1.9-0.57 2.8-0.153 0.9-0.28 1.783-0.38 2.65v0c0.9-1.733 1.977-3.067 3.23-4 1.247-0.933 2.62-1.4 4.12-1.4v0c1.933 0 3.483 0.9 4.65 2.7 1.167 1.8 1.75 4.2 1.75 7.2v0c0 4.967-1.083 9.107-3.25 12.42-2.167 3.32-4.817 4.98-7.95 4.98v0c-0.433 0-0.867-0.027-1.3-0.08-0.433-0.047-0.867-0.137-1.3-0.27zM117.75-36.65v0c3.7 0 6.51 1.44 8.43 4.32 1.913 2.887 2.87 7.097 2.87 12.63v0c0 2.4-0.257 4.773-0.77 7.12-0.52 2.353-1.263 4.447-2.23 6.28v0c-1.233 2.4-2.773 4.217-4.62 5.45-1.853 1.233-3.947 1.85-6.28 1.85v0c-3.433 0-6.207-1.667-8.32-5-2.12-3.333-3.18-7.65-3.18-12.95v0c0-5.733 1.317-10.45 3.95-14.15 2.633-3.7 6.017-5.55 10.15-5.55zM115.55-1.95v0c2.9 0 5.193-1.577 6.88-4.73 1.68-3.147 2.52-7.203 2.52-12.17v0c0-5.067-0.633-8.793-1.9-11.18-1.267-2.38-3.25-3.57-5.95-3.57v0c-2.733 0-4.967 1.49-6.7 4.47-1.733 2.987-2.6 6.847-2.6 11.58v0c0 4.533 0.693 8.267 2.08 11.2 1.38 2.933 3.27 4.4 5.67 4.4zM137.7-8.35v0c0 1.567 0.033 3.34 0.1 5.32 0.067 1.987 0.15 3.43 0.25 4.33v0c-0.433 0.133-0.95 0.25-1.55 0.35-0.6 0.1-1.183 0.15-1.75 0.15v0c-0.233-3.5-0.433-8.033-0.6-13.6-0.167-5.567-0.25-10.283-0.25-14.15v0c0.333-0.167 0.733-0.3 1.2-0.4 0.467-0.1 0.95-0.15 1.45-0.15v0c0.333 0 0.66 0.017 0.98 0.05 0.313 0.033 0.637 0.083 0.97 0.15v0c-0.067 0.6-0.14 1.557-0.22 2.87-0.087 1.32-0.147 2.18-0.18 2.58v0c1.1-1.833 2.267-3.2 3.5-4.1 1.233-0.9 2.533-1.35 3.9-1.35v0c2.067 0 3.577 0.757 4.53 2.27 0.947 1.52 1.42 3.897 1.42 7.13v0c0 2.6-0.207 5.517-0.62 8.75-0.42 3.233-0.863 5.767-1.33 7.6v0c-0.533-0.033-1.123-0.11-1.77-0.23-0.653-0.113-1.247-0.253-1.78-0.42v0c0.6-3.267 1.033-6.167 1.3-8.7 0.267-2.533 0.4-4.917 0.4-7.15v0c0-2.1-0.257-3.617-0.77-4.55-0.52-0.933-1.363-1.4-2.53-1.4v0c-1.167 0-2.323 0.583-3.47 1.75-1.153 1.167-2.147 2.767-2.98 4.8v0c-0.067 2.4-0.117 4.15-0.15 5.25-0.033 1.1-0.05 2.05-0.05 2.85zM161.35 2.65v0c-0.333 0.1-0.857 0.193-1.57 0.28-0.72 0.08-1.33 0.12-1.83 0.12v0c-0.533-7.433-0.84-14.26-0.92-20.48-0.087-6.213 0.053-12.57 0.42-19.07v0c0.333-0.167 0.71-0.31 1.13-0.43 0.413-0.113 0.82-0.17 1.22-0.17v0c0.333 0 0.66 0.027 0.98 0.08 0.313 0.047 0.653 0.12 1.02 0.22v0c-0.533 5.167-0.84 11.273-0.92 18.32-0.087 7.053 0.07 14.097 0.47 21.13zM171.9-37.05v0c0.467 0.033 0.877 0.09 1.23 0.17 0.347 0.087 0.67 0.213 0.97 0.38v0c-0.333 0.733-0.673 1.607-1.02 2.62-0.353 1.02-0.63 2.013-0.83 2.98v0c-0.367 0.067-0.833 0.107-1.4 0.12-0.567 0.02-1.15 0.013-1.75-0.02v0c-0.067-0.3-0.107-0.577-0.12-0.83-0.02-0.247-0.03-0.503-0.03-0.77v0c0-0.7 0.077-1.45 0.23-2.25 0.147-0.8 0.353-1.483 0.62-2.05v0c0.367-0.167 0.7-0.273 1-0.32 0.3-0.053 0.667-0.063 1.1-0.03zM168.05-24.9v0c0.4-0.233 0.81-0.41 1.23-0.53 0.413-0.113 0.853-0.17 1.32-0.17v0c0.267 0 0.51 0.017 0.73 0.05 0.213 0.033 0.437 0.083 0.67 0.15v0c-0.667 3.5-1.133 7.6-1.4 12.3-0.267 4.7-0.267 9.083 0 13.15v0c-0.233 0.133-0.533 0.233-0.9 0.3-0.367 0.067-0.733 0.1-1.1 0.1v0c-0.167 0-0.323-0.007-0.47-0.02-0.153-0.02-0.33-0.047-0.53-0.08v0c-0.567-4.233-0.807-8.61-0.72-13.13 0.08-4.513 0.47-8.553 1.17-12.12zM181-8.35v0c0 1.567 0.033 3.34 0.1 5.32 0.067 1.987 0.15 3.43 0.25 4.33v0c-0.433 0.133-0.95 0.25-1.55 0.35-0.6 0.1-1.183 0.15-1.75 0.15v0c-0.233-3.5-0.433-8.033-0.6-13.6-0.167-5.567-0.25-10.283-0.25-14.15v0c0.333-0.167 0.733-0.3 1.2-0.4 0.467-0.1 0.95-0.15 1.45-0.15v0c0.333 0 0.66 0.017 0.98 0.05 0.313 0.033 0.637 0.083 0.97 0.15v0c-0.067 0.6-0.14 1.557-0.22 2.87-0.087 1.32-0.147 2.18-0.18 2.58v0c1.1-1.833 2.267-3.2 3.5-4.1 1.233-0.9 2.533-1.35 3.9-1.35v0c2.067 0 3.577 0.757 4.53 2.27 0.947 1.52 1.42 3.897 1.42 7.13v0c0 2.6-0.207 5.517-0.62 8.75-0.42 3.233-0.863 5.767-1.33 7.6v0c-0.533-0.033-1.123-0.11-1.77-0.23-0.653-0.113-1.247-0.253-1.78-0.42v0c0.6-3.267 1.033-6.167 1.3-8.7 0.267-2.533 0.4-4.917 0.4-7.15v0c0-2.1-0.257-3.617-0.77-4.55-0.52-0.933-1.363-1.4-2.53-1.4v0c-1.167 0-2.323 0.583-3.47 1.75-1.153 1.167-2.147 2.767-2.98 4.8v0c-0.067 2.4-0.117 4.15-0.15 5.25-0.033 1.1-0.05 2.05-0.05 2.85zM203.7-15.65v0c0.967 0.333 2.01 0.59 3.13 0.77 1.113 0.187 2.287 0.28 3.52 0.28v0c0.333 0 0.727-0.017 1.18-0.05 0.447-0.033 0.77-0.083 0.97-0.15v0c0.267-0.967 0.46-1.86 0.58-2.68 0.113-0.813 0.17-1.553 0.17-2.22v0c0-1.467-0.24-2.517-0.72-3.15-0.487-0.633-1.263-0.95-2.33-0.95v0c-1.4 0-2.683 0.75-3.85 2.25-1.167 1.5-2.05 3.467-2.65 5.9zM214.85-8.5v0c0.533 0.1 1.077 0.3 1.63 0.6 0.547 0.3 1.02 0.65 1.42 1.05v0c-0.633 1.9-1.923 3.607-3.87 5.12-1.953 1.52-3.98 2.28-6.08 2.28v0c-2.7 0-4.823-1.05-6.37-3.15-1.553-2.1-2.33-4.917-2.33-8.45v0c0-3.967 1.11-7.533 3.33-10.7 2.213-3.167 4.853-4.75 7.92-4.75v0c1.967 0 3.527 0.623 4.68 1.87 1.147 1.253 1.72 2.947 1.72 5.08v0c0 1.133-0.107 2.273-0.32 3.42-0.22 1.153-0.513 2.247-0.88 3.28v0c-0.667 0.233-1.473 0.407-2.42 0.52-0.953 0.12-2.13 0.18-3.53 0.18v0c-1.067 0-2.157-0.093-3.27-0.28-1.12-0.18-2.197-0.453-3.23-0.82v0c-0.067 0.4-0.107 0.79-0.12 1.17-0.02 0.387-0.03 0.763-0.03 1.13v0c0 2.633 0.46 4.757 1.38 6.37 0.913 1.62 2.137 2.43 3.67 2.43v0c1.333 0 2.667-0.627 4-1.88 1.333-1.247 2.233-2.737 2.7-4.47z" fill="#5e1914" fill-rule="nonzero" stroke="none" stroke-width="1" stroke-linecap="butt" stroke-linejoin="miter" stroke-miterlimit="10" stroke-dasharray="" stroke-dashoffset="0" font-family="none" font-weight="none" font-size="none" text-anchor="none" style="mix-blend-mode: normal" data-fill-palette-color="secondary" id="text-1"></path></g></g><g transform="matrix(1,0,0,1,29.33176499999999,58.44780575734357)"><svg viewBox="0 0 316.416 64.28637848531287" height="64.28637848531287" width="316.416"><g><svg viewBox="0 0 440.1254931853336 89.42049085996707" height="64.28637848531287" width="316.416"><g><rect width="5.835044969391026" height="65.02720210873147" x="102.59946138507601" y="12.196644375617801" fill="#5e1914" opacity="1" stroke-width="0" stroke="transparent" fill-opacity="1" class="rect-yte-0" data-fill-palette-color="primary" rx="1%" id="yte-0" data-palette-color="#5e1914"></rect></g><g transform="matrix(1,0,0,1,123.7094931853336,12.3584035848435)"><svg viewBox="0 0 316.416 64.70368369028007" height="64.70368369028007" width="316.416"><g id="textblocktransform"><svg viewBox="0 0 316.416 64.70368369028007" height="64.70368369028007" width="316.416" id="textblock"><g><svg viewBox="0 0 316.416 64.70368369028007" height="64.70368369028007" width="316.416"><g transform="matrix(1,0,0,1,0,0)"><svg width="316.416" viewBox="5.4 -37.35 245.57999999999998 49.650000000000006" height="64.70368369028007" data-palette-color="#5e1914"><g class="wordmark-text-0" data-fill-palette-color="primary" id="text-0"><path d="M21.45-16L21.1-16Q18.4-16.4 15.78-16.4 13.15-16.4 11.35-16.3L11.35-16.3 11.35-10.55Q11.35-3.45 12.15-0.35L12.15-0.35 12.15 0 5.4 0 5.4-0.35Q6.2-3.45 6.2-10.5L6.2-10.5 6.2-24.45Q6.2-31.5 5.4-34.6L5.4-34.6 5.4-34.95 25.65-35.1 24.4-31.3 24.05-31.3Q20.9-32.1 16.8-32.1 12.7-32.1 11.55-32L11.55-32Q11.35-30.5 11.35-19.35L11.35-19.35 23.05-19.6 21.45-16ZM43-5.3L43-10Q40.95-10.75 38.27-10.75 35.6-10.75 34.4-9.9L34.4-9.9Q33.65-8.75 33.65-6.83 33.65-4.9 34.7-3.8 35.75-2.7 37.32-2.7 38.9-2.7 40.55-3.53 42.2-4.35 43-5.3L43-5.3ZM43.8-2.8L43.8-2.8Q40.75 0.55 36.92 0.55 33.1 0.55 30.92-1.1 28.75-2.75 28.75-6.43 28.75-10.1 31.32-11.7 33.9-13.3 38.6-13.3L38.6-13.3 43-13.15 43-16Q43-18.65 41.7-20.3 40.4-21.95 37.75-21.95L37.75-21.95Q35.8-21.9 31.5-18.2L31.5-18.2Q30.05-20.05 29.45-23L29.45-23Q34.4-24.6 38.55-24.6 42.7-24.6 45.2-22.45 47.7-20.3 47.7-16.35L47.7-16.35 47.7-7.95Q47.75-5.7 48.42-3.78 49.1-1.85 50.2-1.1L50.2-1.1 50.3-0.6 44.95 0.7Q44.3-0.9 43.8-2.8ZM61.25-18L61.25-4.4Q64.55-2.7 67.45-2.7 70.35-2.7 71.4-3.3L71.4-3.3Q72.25-4.3 72.9-7.1 73.55-9.9 73.55-12.5L73.55-12.5Q73.55-20.85 68.35-20.85L68.35-20.85Q65.45-20.85 61.25-18L61.25-18ZM61.25-32.7L61.25-32.7 61.25-20.85Q65.4-24.55 69.52-24.55 73.65-24.55 76.27-21.3 78.9-18.05 78.9-13.4L78.9-13.4Q78.9-7.55 75.35-3.5 71.8 0.55 67.17 0.55 62.55 0.55 56-1.55L56-1.55 56-1.85Q56.55-3.35 56.55-8.7L56.55-8.7 56.55-29.35Q56.55-33.3 54.2-35.55L54.2-35.55 54.2-36.15 61.1-37.35 61.4-36.85Q61.25-35.4 61.25-32.7ZM97.99-24.6L97.99-24.6Q99.54-24.6 100.29-24.25L100.29-24.25Q100.29-23.95 100.29-23.65L100.29-23.65Q100.29-20.7 99.39-18.3L99.39-18.3Q97.14-19.75 94.29-19.75L94.29-19.75Q92.74-19.75 91.19-19.2L91.19-19.2 91.19-8.5Q91.19-3.65 92.64-0.35L92.64-0.35 92.64 0 85.64 0 85.64-0.35Q86.49-2.85 86.49-7L86.49-7 86.49-15.5Q86.49-17.65 85.62-19.73 84.74-21.8 83.59-22.5L83.59-22.5 83.54-23.1 89.44-24.65Q90.24-23.3 90.74-21.5L90.74-21.5Q93.74-24.6 97.99-24.6ZM104.79-6.95L104.79-6.95 104.79-16.65Q104.79-21.1 102.29-22.85L102.29-22.85 102.29-23.45 109.34-24.65 109.64-24.15Q109.49-22.7 109.49-20L109.49-20 109.49-8.2Q109.49-3.2 110.74-0.35L110.74-0.35 110.74 0 103.99 0 103.99-0.35Q104.79-2.7 104.79-6.95ZM108.99-35.4L108.99-35.4Q109.69-34.8 109.69-32.5L109.69-32.5Q109.69-31.95 109.64-31.5L109.64-31.5 109.24-31.15Q107.24-30.6 104.49-30.35L104.49-30.35 104.04-30.55Q103.29-31.85 103.29-34L103.29-34Q103.29-34.25 103.29-34.5L103.29-34.5 103.69-34.85Q106.09-35.65 108.29-35.65L108.29-35.65Q108.54-35.65 108.99-35.4ZM124.24-21.2Q122.59-20.2 121.64-17.73 120.69-15.25 120.69-11.83 120.69-8.4 122.06-5.85 123.44-3.3 126.44-3.3L126.44-3.3Q128.44-3.3 131.09-4.23 133.74-5.15 134.59-5.8L134.59-5.8 135.84-3.85Q129.44 0.55 126.14 0.55L126.14 0.55Q121.14 0.55 118.26-2.85 115.39-6.25 115.39-11.75 115.39-17.25 119.11-20.95 122.84-24.65 127.61-24.65 132.39-24.65 135.54-22.5L135.54-22.5Q133.59-19.4 132.99-18.75L132.99-18.75Q129.59-21.35 126.49-21.35L126.49-21.35Q125.34-21.35 124.24-21.2L124.24-21.2ZM146.34-31.6L146.34-31.6Q145.29-30.25 145.29-28.33 145.29-26.4 146.24-25.15 147.19-23.9 148.74-23.08 150.29-22.25 152.14-21.48 153.99-20.7 155.84-19.78 157.69-18.85 159.24-17.63 160.79-16.4 161.74-14.38 162.69-12.35 162.69-9.7L162.69-9.7Q162.69-4.65 159.44-2.05 156.19 0.55 150.54 0.55 144.89 0.55 140.39-2.65L140.39-2.65Q140.54-5.95 142.19-8.4L142.19-8.4Q144.19-6 147.04-4.45 149.89-2.9 152.49-2.9 155.09-2.9 156.94-4.05L156.94-4.05Q158.19-5.55 158.19-8 158.19-10.45 156.91-12 155.64-13.55 153.76-14.43 151.89-15.3 149.66-16.38 147.44-17.45 145.56-18.55 143.69-19.65 142.41-21.7 141.14-23.75 141.14-26.5L141.14-26.5Q141.14-31.1 144.26-33.35 147.39-35.6 152.11-35.6 156.84-35.6 161.79-33.3L161.79-33.3Q161.24-30.35 159.99-27.7L159.99-27.7Q157.94-29.75 155.26-31.08 152.59-32.4 150.19-32.4 147.79-32.4 146.34-31.6ZM175.13-27.25L175.13-27.25 175.13-20.4Q177.03-21.85 178.06-22.55 179.08-23.25 180.71-23.93 182.33-24.6 183.78-24.6L183.78-24.6Q187.48-24.6 189.48-22.3 191.48-20 191.48-15.7L191.48-15.7 191.48-8.5Q191.48-3.75 192.98-0.35L192.98-0.35 192.98 0 185.93 0 185.93-0.35Q186.78-2.85 186.78-7L186.78-7 186.78-14.65Q186.78-17.55 185.91-19.03 185.03-20.5 182.26-20.5 179.48-20.5 175.28-17.95L175.28-17.95 175.28-8.5Q175.28-3.65 176.73-0.35L176.73-0.35 176.73 0 169.73 0 169.73-0.35Q170.58-2.85 170.58-7L170.58-7 170.58-29.35Q170.58-33.35 168.28-35.55L168.28-35.55 168.28-36.15 174.98-37.35 175.28-36.85Q175.13-35.4 175.13-27.25ZM209.28 0.6Q204.03 0.6 200.98-2.73 197.93-6.05 197.93-11.43 197.93-16.8 201.48-20.7 205.03-24.6 210.41-24.6 215.78-24.6 218.71-21.35 221.63-18.1 221.63-12.65 221.63-7.2 218.08-3.3 214.53 0.6 209.28 0.6ZM216.33-11.4L216.33-11.4Q216.33-16.35 214.78-19.05 213.23-21.75 209.28-21.75L209.28-21.75Q206.73-21.75 205.28-20.65L205.28-20.65Q204.38-19.5 203.81-17.15 203.23-14.8 203.23-12.65L203.23-12.65Q203.23-2.2 210.63-2.2L210.63-2.2Q212.93-2.2 214.38-3.25L214.38-3.25Q215.33-4.4 215.83-6.8 216.33-9.2 216.33-11.4ZM240.23-2.65L240.23-2.65Q242.48-2.65 243.53-3.25L243.53-3.25Q244.33-4.2 244.98-7.05 245.63-9.9 245.63-12.55L245.63-12.55Q245.63-20.9 240.58-20.9L240.58-20.9Q237.38-20.9 233.58-18.25L233.58-18.25 233.58-4.75Q236.73-2.65 240.23-2.65ZM228.88 5L228.88 5 228.88-15.7Q228.88-17.9 228.18-19.83 227.48-21.75 226.33-22.45L226.33-22.45 226.28-23.05 233.13-24.65 233.43-24.15Q233.33-23 233.33-20.9L233.33-20.9Q237.48-24.6 241.6-24.6 245.73-24.6 248.35-21.35 250.98-18.1 250.98-13.45L250.98-13.45Q250.98-7.65 247.53-3.53 244.08 0.6 239.68 0.6L239.68 0.6Q236.78 0.6 233.58-0.5L233.58-0.5 233.58 2.9Q233.68 8.9 235.63 11.3L235.63 11.3 235.63 11.55 228.73 12.3Q228.88 10.3 228.88 5Z" fill="#5e1914" data-fill-palette-color="primary"></path></g></svg></g></svg></g></svg></g></svg></g><g><svg viewBox="0 0 87.32447455420944 89.42049085996707" height="89.42049085996707" width="87.32447455420944"><g><svg xmlns="http://www.w3.org/2000/svg" xmlns:xlink="http://www.w3.org/1999/xlink" version="1.1" x="0" y="0" viewBox="0 0 97.656 100" enable-background="new 0 0 97.656 100" xml:space="preserve" id="icon-0" width="87.32447455420944" height="89.42049085996707" class="icon-icon-0" data-fill-palette-color="accent"><path d="M90.11 7.559C85.039 2.513 78.86 0 71.55 0H64.707C63.73 6.166 57.116 10.963 49.017 10.963S34.303 6.166 33.327 0H26.517C19.238 0 12.975 2.513 7.793 7.559 2.598 12.611 0 18.776 0 26.061V44.434H17.682V32.396H22.324V100H75.351V32.396H79.987V43.971H97.656V26.061C97.656 18.776 95.13 12.611 90.11 7.559" fill="#5e1914" data-fill-palette-color="accent"></path></svg></g></svg></g></svg></g></svg></g></svg></g><defs></defs></svg><rect width="375.07953" height="181.18199" fill="none" stroke="none" visibility="hidden"></rect></g></svg></g></svg>